# xmcd
#
# Track frame offsets: 
#        150
#        16640
#        33223
#        47946
#        59105
#        76482
#        94063
#        107610
#        125130
#        139300
#        154543
#        172848
#        188266
#        209788
#
# Disc length: 3025 seconds
#
# Revision: 0
# Processed by: cddbd v1.5.2PL0 Copyright (c) Steve Scherf et al.
# Submitted via: ExactAudioCopy v1.3
#
DISCID=b90bcf0e
DTITLE=Podjezd - K horám se dívám
DYEAR=2017
DGENRE=Acoustic
TTITLE0=Možná
TTITLE1=Buď jak buď
TTITLE2=Vzpomínám
TTITLE3=Sama se přesvědčím
TTITLE4=Poslední plán
TTITLE5=Rozednění
TTITLE6=Probouzení
TTITLE7=Štít
TTITLE8=Dobrú noc
TTITLE9=Nejsem tady
TTITLE10=Zůstávám
TTITLE11=Život je řízný drink
TTITLE12=K horám se dívám
TTITLE13=Střádám
EXTD=
EXTT0=
EXTT1=
EXTT2=
EXTT3=
EXTT4=
EXTT5=
EXTT6=
EXTT7=
EXTT8=
EXTT9=
EXTT10=
EXTT11=
EXTT12=
EXTT13=
PLAYORDER=
